<svg xmlns="http://www.w3.org/2000/svg" xmlns:xlink="http://www.w3.org/1999/xlink" version="1.1" preserveAspectRatio="xMidYMid meet" viewBox="0 0 168 25" id="10000">
<g id="SVGBody" transform="translate(0 0) scale(1)" buffered-rendering="static">
  <g transform="scale(0.0750) translate(-199,-93)">
    <style type="text/css"><![CDATA[
      text {stroke:none;}
      .SVGPort {}
      .SVGPvt {}
      .SVGNext {}
      .SVGSlot {}
      .SVGLoc {stroke-width:5; stroke:black; fill:gray;}
      .LocLabel {stroke: none; font-size: 60pt; font-family: Arial, sans-serif; fill:black;}
      .SVGPart {stroke-width:1; stroke: none; opacity:0;}
      .SVGBlockedPort {fill: blue; opacity:0.5;}
      .SVGConnPort {fill:yellow; opacity:0.5;}
      .SVGAvailPort {fill:green; opacity:0.5;}
      .SVGBlockedSlot {fill: blue; opacity:0.75;}
      .SVGHid {stroke-width:1; stroke: none; fill:gray; opacity:1;}
      .SVGGray {stroke-width:1; stroke: none; fill:lightgray; opacity:0.85;}
      .SVGSel {fill: red; stroke: red; stroke-dasharray: 3; stroke-width: 4; opacity: 0.5;}
      .SVGSel.SVGHid {fill: red; stroke: red; stroke-dasharray: 3; stroke-width: 4; opacity: 1;}
      .SelItem {fill: red; stroke: red; stroke-dasharray: 3; stroke-width: 4; opacity: 0.5;}
    ]]></style>
    <defs>
      <g id="3MTS057I-120" preserveAspectRatio="none">
        <g transform="scale(0.2500,0.2500)">
          <g transform="translate(-160,-164)">
            <polygon points="161, 166 9105, 166 9105, 1494 161, 1494 161, 166" style="fill: #007f7f; fill-rule: evenodd; stroke: #000000; stroke-width: 4.992000;"/>
            <line x1="182.000000" y1="167.000000" x2="182.000000" y2="1495.000000" style="stroke: #000000; stroke-width: 4.992000;"/>
            <line x1="9085.000000" y1="167.000000" x2="9085.000000" y2="1495.000000" style="stroke: #000000; stroke-width: 4.992000;"/>
          </g>
        </g>
      </g>
      <g id="POWR034G-120" preserveAspectRatio="none">
        <g transform="scale(0.2529,0.2486)">
          <g transform="translate(-18,-4)">
            <path d="M 148, 185 C 155, 185 158, 184 162, 178 178, 163 192, 141 192, 115 192, 115 192, 92 192, 92 192, 44 152, 4 104, 4 104, 4 104, 4 104, 4 56, 4 18, 44 18, 92 18, 92 18, 115 18, 115 18, 141 29, 163 46, 178 46, 177 51, 187 61, 185 61, 185 60, 178 61, 168 83, 168 126, 168 148, 168 148, 177 148, 185 148, 185" style="fill: #494949; fill-rule: evenodd; stroke: #000000; stroke-width: 1.024000;"/>
            <path d="M 61, 168 C 61, 141 61, 100 61, 100 61, 86 72, 75 87, 75 87, 75 123, 75 123, 75 137, 75 148, 86 148, 100 148, 100 148, 141 148, 168 148, 168 61, 168 61, 168" style="fill: #494949; fill-rule: evenodd; stroke: #000000; stroke-width: 1.024000;"/>
            <path d="M 67, 82 C 62, 84 62, 93 67, 97 67, 97 97, 124 97, 124 99, 129 108, 129 112, 124 112, 124 141, 96 141, 96 146, 92 144, 86 141, 80 141, 80 131, 75 125, 75 113, 75 92, 75 81, 75 77, 75 67, 82 67, 82" style="fill: #7f7f7f; fill-rule: evenodd; stroke: #000000; stroke-width: 1.024000;"/>
            <path d="M 61, 184 C 61, 157 61, 102 61, 102 61, 87 72, 76 87, 76 87, 76 130, 76 131, 76" style="fill: none; stroke: #f7f7f7; stroke-width: 1.024000;"/>
            <path d="M 70, 83 C 65, 87 66, 93 72, 97 72, 97 97, 121 97, 121 102, 126 108, 126 112, 121 112, 121 137, 96 137, 96 142, 93 144, 87 139, 81 139, 81 130, 77 124, 77 113, 77 93, 77 82, 77 80, 77 70, 83 70, 83" style="fill: #161616; fill-rule: evenodd; stroke: #000000; stroke-width: 1.024000;"/>
          </g>
        </g>
      </g>
    </defs>
    <g id="SVGUse">
      <g>
        <use xlink:href="#3MTS057I-120" x="199" y="93" width="2237" height="333"/>
        <rect class="SVGPart" x="199" y="93" width="2237" height="333"/>
      </g>
      <g>
        <use xlink:href="#POWR034G-120" x="2347" y="354" width="44" height="45"/>
        <rect class="SVGPart SVGPPort" x="2347" y="354" width="44" height="45"/>
      </g>
    </g>
  </g>
</g>
</svg>