<svg xmlns="http://www.w3.org/2000/svg" xmlns:xlink="http://www.w3.org/1999/xlink" version="1.1" preserveAspectRatio="xMidYMid meet" viewBox="0 0 71 236" id="10000">
<g ID="SVGBody" transform="translate(0 0) scale(0.05) " buffered-rendering="static">
<g transform="scale(1) translate(-98,-34)">
<style type="text/css"><![CDATA[ text {stroke:none;} .SVGPort{ } .SVGPvt{ } .SVGNext{ } .SVGSlot{ } .SVGLoc{ stroke-width:5;  stroke:black; fill:gray; } .LocLabel{ stroke: none;\t font-size: 60pt; font-family: Arial, sanserif; fill:black; } .SVGPart{ stroke-width:1;  stroke: none; opacity:0; } .SVGBlockedPort{ fill:  blue; opacity:0.5; } .SVGConnPort{ fill:yellow; opacity:0.5; } .SVGAvailPort{ fill:green; opacity:0.5; } .SVGBlockedSlot{ fill:  blue; opacity:0.75; } .SVGHid{ stroke-width:1;  stroke: none; fill:gray; opacity:1; } .SVGGray{ stroke-width:1;  stroke: none; fill:lightgray; opacity:0.85; } .SVGSel{ fill: red; stroke: red; stroke-dasharray: 3; stroke-width: 4; opacity: 0.5; } .SVGSel.SVGHid{ fill: red; stroke: red; stroke-dasharray: 3; stroke-width: 4; opacity: 1; }    .SelItem{ fill: red; stroke: red; stroke-dasharray: 3; stroke-width: 4; opacity: 0.5; }    ]]>
</style>
<defs>
<svg id="APCC219I-819" preserveAspectRatio="none">
<g transform="scale(0.2500,0.2500)">
<g transform="translate(-317,-256)">
<path d="M 492,12576 L 332,12576 L 332,12652 L 492,12652 L 492,12576 Z" style="fill: #333333; fill-rule: evenodd; stroke: #000000;  stroke-width: 1.024000;"/>
<path d="M 663,12667 L 846,12667 L 846,12676 L 663,12676 L 663,12667 Z" style="fill: #999999; fill-rule: evenodd; stroke: #000000;  stroke-width: 1.024000;"/>
<path d="M 816, 12713  C 823, 12713 829, 12707 829, 12701 829, 12701 829, 12642 829, 12642 829, 12636 823, 12630 816, 12630 816, 12630 816, 12713 816, 12713 " style=" fill: #666666; fill-rule: evenodd; stroke: #000000;  stroke-width: 1.024000;"/>
<path d="M 695, 12713  C 688, 12713 681, 12707 681, 12701 681, 12701 681, 12642 681, 12642 681, 12636 688, 12630 695, 12630 695, 12630 695, 12713 695, 12713 " style=" fill: #666666; fill-rule: evenodd; stroke: #000000;  stroke-width: 1.024000;"/>
<path d="M 695, 12611  C 695, 12611 695, 12774 695, 12774 695, 12787 707, 12798 722, 12798 722, 12798 788, 12798 788, 12798 802, 12798 816, 12787 816, 12774 816, 12774 816, 12611 816, 12611 816, 12611 695, 12611 695, 12611 " style=" fill: #333333; fill-rule: evenodd; stroke: #000000;  stroke-width: 1.024000;"/>
<path d="M 683,12610 L 683,12674 L 675,12674 L 675,12574 L 834,12574 L 834,12674 L 829,12674 L 829,12610 L 683,12610 Z" style="fill: #494949; fill-rule: evenodd; stroke: #000000;  stroke-width: 1.024000;"/>
<line x1="753.000000" y1="12616.000000" x2="753.000000" y2="12786.000000" style=" stroke: #666666;  stroke-width: 1.024000;"/>
<path d="M 3924,12576 L 4084,12576 L 4084,12652 L 3924,12652 L 3924,12576 Z" style="fill: #333333; fill-rule: evenodd; stroke: #000000;  stroke-width: 1.024000;"/>
<path d="M 3570,12667 L 3753,12667 L 3753,12676 L 3570,12676 L 3570,12667 Z" style="fill: #999999; fill-rule: evenodd; stroke: #000000;  stroke-width: 1.024000;"/>
<path d="M 3601, 12713  C 3593, 12713 3587, 12707 3587, 12701 3587, 12701 3587, 12642 3587, 12642 3587, 12636 3593, 12630 3601, 12630 3601, 12630 3601, 12713 3601, 12713 " style=" fill: #666666; fill-rule: evenodd; stroke: #000000;  stroke-width: 1.024000;"/>
<path d="M 3721, 12713  C 3729, 12713 3735, 12707 3735, 12701 3735, 12701 3735, 12642 3735, 12642 3735, 12636 3729, 12630 3721, 12630 3721, 12630 3721, 12713 3721, 12713 " style=" fill: #666666; fill-rule: evenodd; stroke: #000000;  stroke-width: 1.024000;"/>
<path d="M 3721, 12611  C 3721, 12611 3721, 12774 3721, 12774 3721, 12787 3709, 12798 3694, 12798 3694, 12798 3628, 12798 3628, 12798 3613, 12798 3601, 12787 3601, 12774 3601, 12774 3601, 12611 3601, 12611 3601, 12611 3721, 12611 3721, 12611 " style=" fill: #333333; fill-rule: evenodd; stroke: #000000;  stroke-width: 1.024000;"/>
<path d="M 3734,12610 L 3734,12674 L 3741,12674 L 3741,12574 L 3581,12574 L 3581,12674 L 3587,12674 L 3587,12610 L 3734,12610 Z" style="fill: #494949; fill-rule: evenodd; stroke: #000000;  stroke-width: 1.024000;"/>
<line x1="3664.000000" y1="12616.000000" x2="3664.000000" y2="12786.000000" style=" stroke: #666666;  stroke-width: 1.024000;"/>
<path d="M 688,256 L 317,256 L 317,12574 L 688,12574 L 688,256 Z" style="fill: #494949; fill-rule: evenodd; stroke: #000000;  stroke-width: 1.024000;"/>
<path d="M 4098,256 L 3728,256 L 3728,12574 L 4098,12574 L 4098,256 Z" style="fill: #494949; fill-rule: evenodd; stroke: #000000;  stroke-width: 1.024000;"/>
<path d="M 3728,256 L 688,256 L 688,400 L 3728,400 L 3728,256 Z" style="fill: #494949; fill-rule: evenodd; stroke: #000000;  stroke-width: 1.024000;"/>
<path d="M 688,400 L 787,400 L 787,12160 L 688,12160 L 688,400 Z" style="fill: #666666; fill-rule: evenodd; stroke: #000000;  stroke-width: 1.024000;"/>
<path d="M 3628,400 L 3728,400 L 3728,12160 L 3628,12160 L 3628,400 Z" style="fill: #666666; fill-rule: evenodd; stroke: #000000;  stroke-width: 1.024000;"/>
<path d="M 4098,12160 L 317,12160 L 317,12574 L 4098,12574 L 4098,12160 Z" style="fill: #494949; fill-rule: evenodd; stroke: #000000;  stroke-width: 1.024000;"/>
<path d="M 4098,12160 L 317,12160 L 317,12185 L 4098,12185 L 4098,12160 Z" style="fill: #000000; fill-rule: evenodd; stroke: #000000;  stroke-width: 1.024000;"/>
<circle cx="1260.000000" cy="12386.000000" r="29.000000" style=" fill: #000000; fill-rule: evenodd; stroke: #000000;  stroke-width: 1.024000;"/>
<circle cx="3155.000000" cy="12386.000000" r="29.000000" style=" fill: #000000; fill-rule: evenodd; stroke: #000000;  stroke-width: 1.024000;"/>
</g>
</g>
</svg>
<svg id="APC304P-819" preserveAspectRatio="none">
<g transform="scale(2.1923,2.0357)">
<g transform="translate(-8,-7)">
<path d="M 34,7 L 8,7 L 8,34 L 34,34 L 34,7 Z" style="fill: none; stroke: none;"/>
</g>
</g>
</svg>
<svg id="AGRK002P-819" preserveAspectRatio="none">
<g transform="scale(29.2308,2.5000)">
<g transform="translate(-34,-29)">
<path d="M 61,29 L 34,29 L 34,57 L 61,57 L 61,29 Z" style="fill: none; stroke: none;"/>
</g>
</g>
</svg>
<svg id="APC310P-819" preserveAspectRatio="none">
<g transform="scale(0.2500,0.2500)">
<g transform="translate(-39,-29)">
<path d="M 40,29 L 3080,29 L 3080,310 L 40,310 L 40,29 Z" style="fill: none; stroke: none;"/>
<circle cx="96.000000" cy="71.000000" r="16.000000" style=" fill: none; stroke: #000000;  stroke-width: 1.024000;"/>
<circle cx="96.000000" cy="169.000000" r="16.000000" style=" fill: none; stroke: #000000;  stroke-width: 1.024000;"/>
<circle cx="96.000000" cy="269.000000" r="16.000000" style=" fill: none; stroke: #000000;  stroke-width: 1.024000;"/>
<circle cx="3025.000000" cy="71.000000" r="16.000000" style=" fill: none; stroke: #000000;  stroke-width: 1.024000;"/>
<circle cx="3025.000000" cy="169.000000" r="16.000000" style=" fill: none; stroke: #000000;  stroke-width: 1.024000;"/>
<circle cx="3025.000000" cy="269.000000" r="16.000000" style=" fill: none; stroke: #000000;  stroke-width: 1.024000;"/>
</g>
</g>
</svg>
</defs>
<g ID="SVGUse">
<g>
<use xlink:href="#APCC219I-819" x="98" y="34" width="945" height="3136"/>
</g>
<g>
<use xlink:href="#APC304P-819" x="73" y="1574" width="57" height="57"/>
</g>
<g>
<use xlink:href="#APC304P-819" x="1011" y="1574" width="57" height="57"/>
</g>
<g>
<use xlink:href="#APC304P-819" x="165" y="1574" width="57" height="57"/>
</g>
<g>
<use xlink:href="#APC304P-819" x="918" y="1574" width="57" height="57"/>
</g>
<g>
<use xlink:href="#AGRK002P-819" x="190" y="-36" width="760" height="70"/>
</g>
<g>
<use xlink:href="#APC310P-819" x="190" y="2940" width="760" height="70"/>
</g>
<g style="font-family:Arial; font-size:16pt; fill:#ff7f00; text-anchor: end; ">
<text x="188" y="2996">1</text>
</g>
<g style="font-family:Arial; font-size:16pt; fill:#ff7f00; ">
<text x="952" y="2996">1</text>
</g>
<g>
<use xlink:href="#APC310P-819" x="190" y="2870" width="760" height="70"/>
</g>
<g style="font-family:Arial; font-size:16pt; fill:#ff7f00; text-anchor: end; ">
<text x="188" y="2926">2</text>
</g>
<g style="font-family:Arial; font-size:16pt; fill:#ff7f00; ">
<text x="952" y="2926">2</text>
</g>
<g>
<use xlink:href="#APC310P-819" x="190" y="2800" width="760" height="70"/>
</g>
<g style="font-family:Arial; font-size:16pt; fill:#ff7f00; text-anchor: end; ">
<text x="188" y="2856">3</text>
</g>
<g style="font-family:Arial; font-size:16pt; fill:#ff7f00; ">
<text x="952" y="2856">3</text>
</g>
<g>
<use xlink:href="#APC310P-819" x="190" y="2730" width="760" height="70"/>
</g>
<g style="font-family:Arial; font-size:16pt; fill:#ff7f00; text-anchor: end; ">
<text x="188" y="2786">4</text>
</g>
<g style="font-family:Arial; font-size:16pt; fill:#ff7f00; ">
<text x="952" y="2786">4</text>
</g>
<g>
<use xlink:href="#APC310P-819" x="190" y="2660" width="760" height="70"/>
</g>
<g style="font-family:Arial; font-size:16pt; fill:#ff7f00; text-anchor: end; ">
<text x="188" y="2716">5</text>
</g>
<g style="font-family:Arial; font-size:16pt; fill:#ff7f00; ">
<text x="952" y="2716">5</text>
</g>
<g>
<use xlink:href="#APC310P-819" x="190" y="2590" width="760" height="70"/>
</g>
<g style="font-family:Arial; font-size:16pt; fill:#ff7f00; text-anchor: end; ">
<text x="188" y="2646">6</text>
</g>
<g style="font-family:Arial; font-size:16pt; fill:#ff7f00; ">
<text x="952" y="2646">6</text>
</g>
<g>
<use xlink:href="#APC310P-819" x="190" y="2520" width="760" height="70"/>
</g>
<g style="font-family:Arial; font-size:16pt; fill:#ff7f00; text-anchor: end; ">
<text x="188" y="2576">7</text>
</g>
<g style="font-family:Arial; font-size:16pt; fill:#ff7f00; ">
<text x="952" y="2576">7</text>
</g>
<g>
<use xlink:href="#APC310P-819" x="190" y="2450" width="760" height="70"/>
</g>
<g style="font-family:Arial; font-size:16pt; fill:#ff7f00; text-anchor: end; ">
<text x="188" y="2506">8</text>
</g>
<g style="font-family:Arial; font-size:16pt; fill:#ff7f00; ">
<text x="952" y="2506">8</text>
</g>
<g>
<use xlink:href="#APC310P-819" x="190" y="2380" width="760" height="70"/>
</g>
<g style="font-family:Arial; font-size:16pt; fill:#ff7f00; text-anchor: end; ">
<text x="188" y="2436">9</text>
</g>
<g style="font-family:Arial; font-size:16pt; fill:#ff7f00; ">
<text x="952" y="2436">9</text>
</g>
<g>
<use xlink:href="#APC310P-819" x="190" y="2310" width="760" height="70"/>
</g>
<g style="font-family:Arial; font-size:16pt; fill:#ff7f00; text-anchor: end; ">
<text x="188" y="2366">10</text>
</g>
<g style="font-family:Arial; font-size:16pt; fill:#ff7f00; ">
<text x="952" y="2366">10</text>
</g>
<g>
<use xlink:href="#APC310P-819" x="190" y="2240" width="760" height="70"/>
</g>
<g style="font-family:Arial; font-size:16pt; fill:#ff7f00; text-anchor: end; ">
<text x="188" y="2296">11</text>
</g>
<g style="font-family:Arial; font-size:16pt; fill:#ff7f00; ">
<text x="952" y="2296">11</text>
</g>
<g>
<use xlink:href="#APC310P-819" x="190" y="2170" width="760" height="70"/>
</g>
<g style="font-family:Arial; font-size:16pt; fill:#ff7f00; text-anchor: end; ">
<text x="188" y="2226">12</text>
</g>
<g style="font-family:Arial; font-size:16pt; fill:#ff7f00; ">
<text x="952" y="2226">12</text>
</g>
<g>
<use xlink:href="#APC310P-819" x="190" y="2100" width="760" height="70"/>
</g>
<g style="font-family:Arial; font-size:16pt; fill:#ff7f00; text-anchor: end; ">
<text x="188" y="2156">13</text>
</g>
<g style="font-family:Arial; font-size:16pt; fill:#ff7f00; ">
<text x="952" y="2156">13</text>
</g>
<g>
<use xlink:href="#APC310P-819" x="190" y="2030" width="760" height="70"/>
</g>
<g style="font-family:Arial; font-size:16pt; fill:#ff7f00; text-anchor: end; ">
<text x="188" y="2086">14</text>
</g>
<g style="font-family:Arial; font-size:16pt; fill:#ff7f00; ">
<text x="952" y="2086">14</text>
</g>
<g>
<use xlink:href="#APC310P-819" x="190" y="1960" width="760" height="70"/>
</g>
<g style="font-family:Arial; font-size:16pt; fill:#ff7f00; text-anchor: end; ">
<text x="188" y="2016">15</text>
</g>
<g style="font-family:Arial; font-size:16pt; fill:#ff7f00; ">
<text x="952" y="2016">15</text>
</g>
<g>
<use xlink:href="#APC310P-819" x="190" y="1890" width="760" height="70"/>
</g>
<g style="font-family:Arial; font-size:16pt; fill:#ff7f00; text-anchor: end; ">
<text x="188" y="1946">16</text>
</g>
<g style="font-family:Arial; font-size:16pt; fill:#ff7f00; ">
<text x="952" y="1946">16</text>
</g>
<g>
<use xlink:href="#APC310P-819" x="190" y="1820" width="760" height="70"/>
</g>
<g style="font-family:Arial; font-size:16pt; fill:#ff7f00; text-anchor: end; ">
<text x="188" y="1876">17</text>
</g>
<g style="font-family:Arial; font-size:16pt; fill:#ff7f00; ">
<text x="952" y="1876">17</text>
</g>
<g>
<use xlink:href="#APC310P-819" x="190" y="1750" width="760" height="70"/>
</g>
<g style="font-family:Arial; font-size:16pt; fill:#ff7f00; text-anchor: end; ">
<text x="188" y="1806">18</text>
</g>
<g style="font-family:Arial; font-size:16pt; fill:#ff7f00; ">
<text x="952" y="1806">18</text>
</g>
<g>
<use xlink:href="#APC310P-819" x="190" y="1680" width="760" height="70"/>
</g>
<g style="font-family:Arial; font-size:16pt; fill:#ff7f00; text-anchor: end; ">
<text x="188" y="1736">19</text>
</g>
<g style="font-family:Arial; font-size:16pt; fill:#ff7f00; ">
<text x="952" y="1736">19</text>
</g>
<g>
<use xlink:href="#APC310P-819" x="190" y="1610" width="760" height="70"/>
</g>
<g style="font-family:Arial; font-size:16pt; fill:#ff7f00; text-anchor: end; ">
<text x="188" y="1666">20</text>
</g>
<g style="font-family:Arial; font-size:16pt; fill:#ff7f00; ">
<text x="952" y="1666">20</text>
</g>
<g>
<use xlink:href="#APC310P-819" x="190" y="1540" width="760" height="70"/>
</g>
<g style="font-family:Arial; font-size:16pt; fill:#ff7f00; text-anchor: end; ">
<text x="188" y="1596">21</text>
</g>
<g style="font-family:Arial; font-size:16pt; fill:#ff7f00; ">
<text x="952" y="1596">21</text>
</g>
<g>
<use xlink:href="#APC310P-819" x="190" y="1470" width="760" height="70"/>
</g>
<g style="font-family:Arial; font-size:16pt; fill:#ff7f00; text-anchor: end; ">
<text x="188" y="1526">22</text>
</g>
<g style="font-family:Arial; font-size:16pt; fill:#ff7f00; ">
<text x="952" y="1526">22</text>
</g>
<g>
<use xlink:href="#APC310P-819" x="190" y="1400" width="760" height="70"/>
</g>
<g style="font-family:Arial; font-size:16pt; fill:#ff7f00; text-anchor: end; ">
<text x="188" y="1456">23</text>
</g>
<g style="font-family:Arial; font-size:16pt; fill:#ff7f00; ">
<text x="952" y="1456">23</text>
</g>
<g>
<use xlink:href="#APC310P-819" x="190" y="1330" width="760" height="70"/>
</g>
<g style="font-family:Arial; font-size:16pt; fill:#ff7f00; text-anchor: end; ">
<text x="188" y="1386">24</text>
</g>
<g style="font-family:Arial; font-size:16pt; fill:#ff7f00; ">
<text x="952" y="1386">24</text>
</g>
<g>
<use xlink:href="#APC310P-819" x="190" y="1260" width="760" height="70"/>
</g>
<g style="font-family:Arial; font-size:16pt; fill:#ff7f00; text-anchor: end; ">
<text x="188" y="1316">25</text>
</g>
<g style="font-family:Arial; font-size:16pt; fill:#ff7f00; ">
<text x="952" y="1316">25</text>
</g>
<g>
<use xlink:href="#APC310P-819" x="190" y="1190" width="760" height="70"/>
</g>
<g style="font-family:Arial; font-size:16pt; fill:#ff7f00; text-anchor: end; ">
<text x="188" y="1246">26</text>
</g>
<g style="font-family:Arial; font-size:16pt; fill:#ff7f00; ">
<text x="952" y="1246">26</text>
</g>
<g>
<use xlink:href="#APC310P-819" x="190" y="1120" width="760" height="70"/>
</g>
<g style="font-family:Arial; font-size:16pt; fill:#ff7f00; text-anchor: end; ">
<text x="188" y="1176">27</text>
</g>
<g style="font-family:Arial; font-size:16pt; fill:#ff7f00; ">
<text x="952" y="1176">27</text>
</g>
<g>
<use xlink:href="#APC310P-819" x="190" y="1050" width="760" height="70"/>
</g>
<g style="font-family:Arial; font-size:16pt; fill:#ff7f00; text-anchor: end; ">
<text x="188" y="1106">28</text>
</g>
<g style="font-family:Arial; font-size:16pt; fill:#ff7f00; ">
<text x="952" y="1106">28</text>
</g>
<g>
<use xlink:href="#APC310P-819" x="190" y="980" width="760" height="70"/>
</g>
<g style="font-family:Arial; font-size:16pt; fill:#ff7f00; text-anchor: end; ">
<text x="188" y="1036">29</text>
</g>
<g style="font-family:Arial; font-size:16pt; fill:#ff7f00; ">
<text x="952" y="1036">29</text>
</g>
<g>
<use xlink:href="#APC310P-819" x="190" y="910" width="760" height="70"/>
</g>
<g style="font-family:Arial; font-size:16pt; fill:#ff7f00; text-anchor: end; ">
<text x="188" y="966">30</text>
</g>
<g style="font-family:Arial; font-size:16pt; fill:#ff7f00; ">
<text x="952" y="966">30</text>
</g>
<g>
<use xlink:href="#APC310P-819" x="190" y="840" width="760" height="70"/>
</g>
<g style="font-family:Arial; font-size:16pt; fill:#ff7f00;">
<text x="188" y="896">31</text>
</g>
<g style="font-family:Arial; font-size:16pt; fill:#ff7f00; ">
<text x="952" y="896">31</text>
</g>
<g>
<use xlink:href="#APC310P-819" x="190" y="770" width="760" height="70"/>
</g>
<g style="font-family:Arial; font-size:16pt; fill:#ff7f00; text-anchor: end; ">
<text x="188" y="826">32</text>
</g>
<g style="font-family:Arial; font-size:16pt; fill:#ff7f00; ">
<text x="952" y="826">32</text>
</g>
<g>
<use xlink:href="#APC310P-819" x="190" y="700" width="760" height="70"/>
</g>
<g style="font-family:Arial; font-size:16pt; fill:#ff7f00; text-anchor: end; ">
<text x="188" y="756">33</text>
</g>
<g style="font-family:Arial; font-size:16pt; fill:#ff7f00; ">
<text x="952" y="756">33</text>
</g>
<g>
<use xlink:href="#APC310P-819" x="190" y="630" width="760" height="70"/>
</g>
<g style="font-family:Arial; font-size:16pt; fill:#ff7f00; text-anchor: end; ">
<text x="188" y="686">34</text>
</g>
<g style="font-family:Arial; font-size:16pt; fill:#ff7f00; ">
<text x="952" y="686">34</text>
</g>
<g>
<use xlink:href="#APC310P-819" x="190" y="560" width="760" height="70"/>
</g>
<g style="font-family:Arial; font-size:16pt; fill:#ff7f00; text-anchor: end; ">
<text x="188" y="616">35</text>
</g>
<g style="font-family:Arial; font-size:16pt; fill:#ff7f00; ">
<text x="952" y="616">35</text>
</g>
<g>
<use xlink:href="#APC310P-819" x="190" y="490" width="760" height="70"/>
</g>
<g style="font-family:Arial; font-size:16pt; fill:#ff7f00; text-anchor: end; ">
<text x="188" y="546">36</text>
</g>
<g style="font-family:Arial; font-size:16pt; fill:#ff7f00; ">
<text x="952" y="546">36</text>
</g>
<g>
<use xlink:href="#APC310P-819" x="190" y="420" width="760" height="70"/>
</g>
<g style="font-family:Arial; font-size:16pt; fill:#ff7f00; text-anchor: end; ">
<text x="188" y="476">37</text>
</g>
<g style="font-family:Arial; font-size:16pt; fill:#ff7f00; ">
<text x="952" y="476">37</text>
</g>
<g>
<use xlink:href="#APC310P-819" x="190" y="350" width="760" height="70"/>
</g>
<g style="font-family:Arial; font-size:16pt; fill:#ff7f00; text-anchor: end; ">
<text x="188" y="406">38</text>
</g>
<g style="font-family:Arial; font-size:16pt; fill:#ff7f00; ">
<text x="952" y="406">38</text>
</g>
<g>
<use xlink:href="#APC310P-819" x="190" y="280" width="760" height="70"/>
</g>
<g style="font-family:Arial; font-size:16pt; fill:#ff7f00; text-anchor: end; ">
<text x="188" y="336">39</text>
</g>
<g style="font-family:Arial; font-size:16pt; fill:#ff7f00; ">
<text x="952" y="336">39</text>
</g>
<g>
<use xlink:href="#APC310P-819" x="190" y="210" width="760" height="70"/>
</g>
<g style="font-family:Arial; font-size:16pt; fill:#ff7f00; text-anchor: end; ">
<text x="188" y="266">40</text>
</g>
<g style="font-family:Arial; font-size:16pt; fill:#ff7f00; ">
<text x="952" y="266">40</text>
</g>
<g>
<use xlink:href="#APC310P-819" x="190" y="140" width="760" height="70"/>
</g>
<g style="font-family:Arial; font-size:16pt; fill:#ff7f00; text-anchor: end; ">
<text x="188" y="196">41</text>
</g>
<g style="font-family:Arial; font-size:16pt; fill:#ff7f00; ">
<text x="952" y="196">41</text>
</g>
<g>
<use xlink:href="#APC310P-819" x="190" y="70" width="760" height="70"/>
</g>
<g style="font-family:Arial; font-size:16pt; fill:#ff7f00; text-anchor: end; ">
<text x="188" y="126">42</text>
</g>
<g style="font-family:Arial; font-size:16pt; fill:#ff7f00; ">
<text x="952" y="126">42</text>
</g>
</g>
</g>
</g>
</svg>